# xmcd CD database file
#
# Track frame offsets:
#	150
#	43049
#	85683
#	135673
#	161930
#	207504
#	229192
#	247482
#
# Disc length: 3583 seconds
#
# Revision: 0
# Processed by: cddbd v1.5.2PL0 Copyright (c) Steve Scherf et al.
# Submitted via: CDex 1.51
#
DISCID=740dfd08
DTITLE=Stephan Nort - Feng Shui II
DYEAR=2002
DGENRE=New Age
TTITLE0=K'an - Karriere
TTITLE1=K'un - Beziehungen
TTITLE2=Chen - Gesundheit and Familie
TTITLE3=Sun - Reichtum und Segen
TTITLE4=Chlen - Förderer
TTITLE5=Tui - Kreativität and Kinder
TTITLE6=Ken - Inneres Wissen
TTITLE7=Li - Ruhm
EXTD=YEAR: 2002
EXTT0=
EXTT1=
EXTT2=
EXTT3=
EXTT4=
EXTT5=
EXTT6=
EXTT7=
PLAYORDER=
